<svg width="18" height="20" viewBox="0 0 18 20" fill="none" xmlns="http://www.w3.org/2000/svg">
<g clip-path="url(#clip0)">
<path d="M8.09514 15.5559L0.282309 6.65567C0.101461 6.44982 0.00183098 6.17502 0.00183099 5.88202C0.001831 5.58901 0.101461 5.31422 0.282309 5.10837L0.857538 4.45292C1.23236 4.02642 1.84156 4.02642 2.21582 4.45292L8.77657 11.9267L15.3446 4.44463C15.5254 4.23878 15.7665 4.12512 16.0236 4.12512C16.281 4.12512 16.522 4.23878 16.703 4.44463L17.2781 5.10007C17.459 5.30609 17.5586 5.58072 17.5586 5.87373C17.5586 6.16673 17.459 6.44153 17.2781 6.64738L9.45814 15.5559C9.27672 15.7623 9.03449 15.8756 8.777 15.8749C8.5185 15.8756 8.27642 15.7623 8.09514 15.5559Z" fill="#BD8D99"/>
</g>
<defs>
<clipPath id="clip0">
<rect width="20" height="17.5568" fill="white" transform="matrix(-3.65443e-08 1 1 5.22841e-08 0.00183105 0)"/>
</clipPath>
</defs>
</svg>
